<svg width="134" height="55" viewBox="0 0 134 55" fill="none" xmlns="http://www.w3.org/2000/svg">
<g filter="url(#filter0_d_206_15)">
<rect x="24" y="6" width="31" height="5" fill="white"/>
<rect x="52" y="13" width="30" height="5" fill="white"/>
<rect x="78" y="20" width="32" height="5" fill="white"/>
<path d="M11.9 42.16H10.42V46.56C10.42 46.8533 10.5533 47.0533 10.82 47.16C11.1 47.2667 11.52 47.3533 12.08 47.42C12.24 47.4467 12.32 47.56 12.32 47.76C12.32 47.8533 12.3067 47.9667 12.28 48.1C11.92 48.0733 11.48 48.0467 10.96 48.02C10.4533 48.0067 9.95333 48 9.46 48C9.11333 48 8.71333 48.0067 8.26 48.02C7.80667 48.0467 7.38 48.0733 6.98 48.1C6.95333 47.9667 6.94 47.86 6.94 47.78C6.94 47.5933 7.01333 47.4867 7.16 47.46C7.66667 47.38 8.02 47.2867 8.22 47.18C8.43333 47.06 8.54 46.8667 8.54 46.6V36.42C8.54 36.1667 8.44 35.98 8.24 35.86C8.05333 35.7267 7.68 35.6267 7.12 35.56C6.98667 35.5467 6.92 35.4333 6.92 35.22C6.92 35.14 6.93333 35.0333 6.96 34.9C7.36 34.9267 7.77333 34.9533 8.2 34.98C8.62667 34.9933 9.03333 35 9.42 35H12.12C13.56 35 14.6467 35.32 15.38 35.96C16.1133 36.5867 16.48 37.44 16.48 38.52C16.48 38.8133 16.4267 39.12 16.32 39.44C16.2267 39.76 16.0733 40.0733 15.86 40.38C15.66 40.6867 15.3933 40.9733 15.06 41.24C14.74 41.4933 14.36 41.7 13.92 41.86L17.26 46.5C17.5133 46.8467 17.7933 47.0867 18.1 47.22C18.4067 47.3533 18.6933 47.4533 18.96 47.52C19.08 47.5467 19.14 47.64 19.14 47.8C19.14 47.9067 19.1267 48.0267 19.1 48.16C18.7933 48.1333 18.42 48.1067 17.98 48.08C17.54 48.0667 17.1333 48.06 16.76 48.06C16.48 48.06 16.1933 47.94 15.9 47.7C15.62 47.46 15.3533 47.1533 15.1 46.78L11.9 42.16ZM11.48 41.34C12.4133 41.34 13.1333 41.1467 13.64 40.76C14.1467 40.36 14.4 39.6667 14.4 38.68C14.4 38.2667 14.3467 37.8867 14.24 37.54C14.1333 37.1933 13.96 36.8933 13.72 36.64C13.4933 36.3867 13.1867 36.1867 12.8 36.04C12.4267 35.8933 11.9667 35.82 11.42 35.82H10.42V41.34H11.48ZM19.2828 41.5C19.2828 40.58 19.4495 39.7133 19.7828 38.9C20.1161 38.0867 20.5695 37.3733 21.1428 36.76C21.7161 36.1467 22.3828 35.66 23.1428 35.3C23.9028 34.94 24.7028 34.76 25.5428 34.76C26.7028 34.76 27.7161 34.9467 28.5828 35.32C29.4495 35.68 30.1628 36.1733 30.7228 36.8C31.2961 37.4133 31.7228 38.1267 32.0028 38.94C32.2828 39.7533 32.4228 40.6067 32.4228 41.5C32.4228 42.5533 32.2495 43.5 31.9028 44.34C31.5561 45.1667 31.0761 45.8733 30.4628 46.46C29.8628 47.0333 29.1495 47.4733 28.3228 47.78C27.5095 48.0867 26.6361 48.24 25.7028 48.24C24.7561 48.24 23.8895 48.08 23.1028 47.76C22.3161 47.44 21.6361 46.9867 21.0628 46.4C20.5028 45.8 20.0628 45.0867 19.7428 44.26C19.4361 43.4333 19.2828 42.5133 19.2828 41.5ZM26.1628 47.28C26.7895 47.28 27.3628 47.16 27.8828 46.92C28.4028 46.68 28.8495 46.3467 29.2228 45.92C29.5961 45.4933 29.8828 44.9867 30.0828 44.4C30.2961 43.8133 30.4028 43.1733 30.4028 42.48C30.4028 41.52 30.3028 40.6333 30.1028 39.82C29.9028 38.9933 29.5961 38.28 29.1828 37.68C28.7828 37.0667 28.2695 36.5867 27.6428 36.24C27.0295 35.8933 26.3095 35.72 25.4828 35.72C24.9361 35.72 24.4095 35.8267 23.9028 36.04C23.4095 36.24 22.9695 36.54 22.5828 36.94C22.2095 37.3267 21.9095 37.8067 21.6828 38.38C21.4561 38.9533 21.3428 39.6133 21.3428 40.36C21.3428 41.3467 21.4495 42.2667 21.6628 43.12C21.8761 43.96 22.1828 44.6933 22.5828 45.32C22.9961 45.9333 23.5028 46.4133 24.1028 46.76C24.7028 47.1067 25.3895 47.28 26.1628 47.28ZM37.5225 42.24L34.1825 36.24C34.0492 36.04 33.8825 35.8933 33.6825 35.8C33.4825 35.6933 33.2092 35.6133 32.8625 35.56C32.7958 35.5467 32.7425 35.5067 32.7025 35.44C32.6758 35.3733 32.6625 35.2933 32.6625 35.2C32.6625 35.1733 32.6625 35.1467 32.6625 35.12C32.6625 35.08 32.6692 35.0467 32.6825 35.02C32.6825 34.98 32.6892 34.94 32.7025 34.9C32.9958 34.9267 33.3692 34.9533 33.8225 34.98C34.2758 34.9933 34.7158 35 35.1425 35C35.3025 35 35.4892 35 35.7025 35C35.9158 34.9867 36.1358 34.98 36.3625 34.98C36.5892 34.9667 36.8025 34.9533 37.0025 34.94C37.2158 34.9267 37.3958 34.9133 37.5425 34.9C37.5425 34.9533 37.5492 35 37.5625 35.04C37.5625 35.08 37.5625 35.1133 37.5625 35.14C37.5758 35.1667 37.5825 35.1933 37.5825 35.22C37.5825 35.3 37.5625 35.3733 37.5225 35.44C37.4958 35.5067 37.4492 35.5467 37.3825 35.56C36.9958 35.6133 36.7225 35.68 36.5625 35.76C36.4158 35.8267 36.3425 35.9267 36.3425 36.06C36.3425 36.1667 36.3892 36.2933 36.4825 36.44L38.9625 40.92L41.3025 36.76C41.4358 36.52 41.5025 36.3333 41.5025 36.2C41.5025 36.0267 41.4092 35.8933 41.2225 35.8C41.0492 35.7067 40.7692 35.6267 40.3825 35.56C40.2358 35.5467 40.1625 35.4333 40.1625 35.22C40.1625 35.1533 40.1692 35.0933 40.1825 35.04C40.1825 35 40.1892 34.9533 40.2025 34.9C40.4958 34.9267 40.8358 34.9533 41.2225 34.98C41.6225 34.9933 41.9892 35 42.3225 35C42.6292 35 42.9492 34.9933 43.2825 34.98C43.6292 34.9533 43.9692 34.9267 44.3025 34.9C44.3025 34.9533 44.3092 35 44.3225 35.04C44.3225 35.08 44.3225 35.1133 44.3225 35.14C44.3358 35.1667 44.3425 35.1933 44.3425 35.22C44.3425 35.4067 44.2692 35.52 44.1225 35.56C43.6558 35.6267 43.3225 35.7133 43.1225 35.82C42.9358 35.9133 42.7758 36.08 42.6425 36.32L39.4025 42.06V46.54C39.4025 46.8333 39.5092 47.04 39.7225 47.16C39.9492 47.2667 40.3225 47.36 40.8425 47.44C40.9892 47.4667 41.0625 47.5733 41.0625 47.76C41.0625 47.7867 41.0558 47.82 41.0425 47.86C41.0425 47.9 41.0425 47.9333 41.0425 47.96C41.0292 48.0133 41.0225 48.0533 41.0225 48.08C40.7025 48.0667 40.3892 48.0533 40.0825 48.04C39.8158 48.0267 39.5292 48.0133 39.2225 48C38.9292 47.9867 38.6692 47.98 38.4425 47.98C38.2158 47.98 37.9558 47.9867 37.6625 48C37.3692 48.0133 37.0892 48.0267 36.8225 48.04C36.5158 48.0533 36.2092 48.0667 35.9025 48.08C35.8892 48.0533 35.8825 48.0133 35.8825 47.96C35.8692 47.9333 35.8625 47.9 35.8625 47.86C35.8625 47.82 35.8625 47.7867 35.8625 47.76C35.8625 47.5733 35.9292 47.4667 36.0625 47.44C36.5825 47.3333 36.9558 47.2333 37.1825 47.14C37.4092 47.0333 37.5225 46.8333 37.5225 46.54V42.24ZM50.7128 43.24H46.2528L44.9728 46.46C44.9061 46.62 44.8728 46.7533 44.8728 46.86C44.8728 47.14 45.2795 47.34 46.0928 47.46C46.1861 47.4733 46.2461 47.5133 46.2728 47.58C46.3128 47.6333 46.3328 47.7 46.3328 47.78C46.3328 47.86 46.3195 47.9667 46.2928 48.1C45.9328 48.0733 45.5528 48.0467 45.1528 48.02C44.7528 48.0067 44.3595 48 43.9728 48C43.7061 48 43.4328 48.0067 43.1528 48.02C42.8728 48.0333 42.5795 48.06 42.2728 48.1C42.2461 47.9933 42.2328 47.8867 42.2328 47.78C42.2328 47.6867 42.2461 47.6067 42.2728 47.54C42.3128 47.4733 42.3861 47.4333 42.4928 47.42C42.9061 47.3533 43.2128 47.2733 43.4128 47.18C43.6261 47.0733 43.7795 46.9133 43.8728 46.7L48.6928 35.1C48.7861 34.8733 48.9128 34.76 49.0728 34.76C49.1261 34.76 49.2061 34.7733 49.3128 34.8L54.1528 46.76C54.2328 46.9467 54.4128 47.0933 54.6928 47.2C54.9728 47.3067 55.2461 47.38 55.5128 47.42C55.5928 47.4467 55.6528 47.4867 55.6928 47.54C55.7461 47.58 55.7728 47.66 55.7728 47.78C55.7728 47.86 55.7595 47.9667 55.7328 48.1C55.3061 48.0733 54.8861 48.0467 54.4728 48.02C54.0595 48.0067 53.6728 48 53.3128 48C52.9395 48 52.5128 48.0067 52.0328 48.02C51.5528 48.0467 51.1195 48.0733 50.7328 48.1C50.7061 47.9667 50.6928 47.86 50.6928 47.78C50.6928 47.66 50.7128 47.58 50.7528 47.54C50.8061 47.4867 50.8528 47.46 50.8928 47.46C51.2395 47.3933 51.5195 47.32 51.7328 47.24C51.9461 47.1467 52.0528 47.0133 52.0528 46.84C52.0528 46.76 52.0261 46.66 51.9728 46.54L50.7128 43.24ZM50.3928 42.42L48.5328 37.52L46.5928 42.42H50.3928ZM60.2833 46.56C60.2833 46.7867 60.3833 46.9467 60.5833 47.04C60.7833 47.1333 61.0566 47.18 61.4033 47.18H63.5833C63.9699 47.18 64.3033 47.1333 64.5833 47.04C64.8633 46.9333 65.1033 46.7867 65.3033 46.6C65.5033 46.4133 65.6766 46.1867 65.8233 45.92C65.9833 45.64 66.1233 45.3267 66.2433 44.98C66.2833 44.8733 66.3633 44.82 66.4833 44.82C66.5499 44.82 66.6166 44.84 66.6833 44.88C66.7633 44.9067 66.8433 44.94 66.9233 44.98C66.8299 45.38 66.7366 45.8067 66.6433 46.26C66.5633 46.7 66.4899 47.2 66.4233 47.76C66.4099 47.9067 66.3699 48 66.3033 48.04C66.2366 48.08 66.1566 48.1 66.0633 48.1C65.8366 48.1 65.5499 48.08 65.2033 48.04C64.8699 48.0133 64.5766 48 64.3233 48H59.3233C59.0166 48 58.6299 48.0067 58.1633 48.02C57.6966 48.0467 57.2499 48.0733 56.8233 48.1C56.7966 47.9667 56.7833 47.86 56.7833 47.78C56.7833 47.5933 56.8499 47.4867 56.9833 47.46C57.5299 47.3667 57.9033 47.2667 58.1033 47.16C58.3033 47.04 58.4033 46.86 58.4033 46.62V36.42C58.4033 36.1533 58.3099 35.9667 58.1233 35.86C57.9366 35.74 57.5766 35.64 57.0433 35.56C56.9766 35.5467 56.9233 35.5133 56.8833 35.46C56.8566 35.3933 56.8433 35.32 56.8433 35.24C56.8433 35.1467 56.8566 35.0333 56.8833 34.9C57.3366 34.9267 57.7833 34.9533 58.2233 34.98C58.6633 34.9933 59.0366 35 59.3433 35C59.7966 35 60.2766 34.9933 60.7833 34.98C61.2899 34.9533 61.7433 34.9267 62.1433 34.9C62.1699 35.0333 62.1833 35.14 62.1833 35.22C62.1833 35.4467 62.1099 35.5667 61.9633 35.58C61.3899 35.6467 60.9633 35.7467 60.6833 35.88C60.4166 36 60.2833 36.2267 60.2833 36.56V46.56ZM80.6748 38.14C80.5415 38.1667 80.4415 38.18 80.3748 38.18C80.2015 38.18 80.0748 38.1467 79.9948 38.08C79.9148 38.0133 79.8548 37.94 79.8148 37.86C79.4682 37.1 79.0548 36.5467 78.5748 36.2C78.0948 35.8533 77.4415 35.68 76.6148 35.68C76.2948 35.68 75.9882 35.7267 75.6948 35.82C75.4148 35.9 75.1682 36.0267 74.9548 36.2C74.7415 36.36 74.5682 36.56 74.4348 36.8C74.3148 37.04 74.2548 37.3067 74.2548 37.6C74.2548 38.2267 74.5148 38.74 75.0348 39.14C75.5682 39.54 76.3482 39.9467 77.3748 40.36C78.6548 40.8667 79.5948 41.4333 80.1948 42.06C80.8082 42.6733 81.1148 43.4333 81.1148 44.34C81.1148 44.8867 81.0282 45.4 80.8548 45.88C80.6948 46.3467 80.4348 46.76 80.0748 47.12C79.7282 47.4667 79.2748 47.74 78.7148 47.94C78.1548 48.14 77.4815 48.24 76.6948 48.24C75.8682 48.24 75.1148 48.1533 74.4348 47.98C73.7682 47.8067 73.2015 47.58 72.7348 47.3C72.6948 46.74 72.6348 46.2 72.5548 45.68C72.4748 45.16 72.3815 44.64 72.2748 44.12C72.3682 44.08 72.4815 44.06 72.6148 44.06C72.7748 44.06 72.8948 44.1 72.9748 44.18C73.0682 44.2467 73.1482 44.36 73.2148 44.52C73.5482 45.48 73.9748 46.1867 74.4948 46.64C75.0282 47.0933 75.7682 47.32 76.7148 47.32C77.1415 47.32 77.5148 47.26 77.8348 47.14C78.1548 47.02 78.4215 46.8533 78.6348 46.64C78.8482 46.4267 79.0082 46.1867 79.1148 45.92C79.2215 45.6533 79.2748 45.3667 79.2748 45.06C79.2748 44.3667 79.0348 43.82 78.5548 43.42C78.0882 43.02 77.4148 42.66 76.5348 42.34C75.9615 42.1267 75.4415 41.9067 74.9748 41.68C74.5082 41.44 74.1082 41.1667 73.7748 40.86C73.4415 40.5533 73.1815 40.2 72.9948 39.8C72.8215 39.3867 72.7348 38.9 72.7348 38.34C72.7348 37.8467 72.8215 37.3867 72.9948 36.96C73.1815 36.52 73.4415 36.14 73.7748 35.82C74.1215 35.5 74.5348 35.2467 75.0148 35.06C75.4948 34.8733 76.0348 34.78 76.6348 34.78C77.2615 34.78 77.8615 34.84 78.4348 34.96C79.0082 35.08 79.6548 35.28 80.3748 35.56C80.4015 35.96 80.4348 36.3933 80.4748 36.86C80.5282 37.3133 80.5948 37.74 80.6748 38.14ZM89.4747 35.82V46.5C89.4747 46.8067 89.6014 47.0267 89.8547 47.16C90.108 47.28 90.5347 47.3733 91.1347 47.44C91.2814 47.44 91.3547 47.5467 91.3547 47.76C91.3547 47.8533 91.3414 47.9667 91.3147 48.1C90.888 48.0733 90.4347 48.0467 89.9547 48.02C89.488 48.0067 89.0147 48 88.5347 48C88.068 48 87.588 48.0067 87.0947 48.02C86.6147 48.0467 86.1614 48.0733 85.7347 48.1C85.708 47.9667 85.6947 47.8533 85.6947 47.76C85.6947 47.5733 85.7614 47.4667 85.8947 47.44C86.4947 47.36 86.928 47.26 87.1947 47.14C87.4614 47.02 87.5947 46.8067 87.5947 46.5V35.82H85.5347C85.1347 35.82 84.7947 35.86 84.5147 35.94C84.248 36.02 84.0147 36.14 83.8147 36.3C83.6147 36.46 83.4414 36.6667 83.2947 36.92C83.148 37.1733 82.9947 37.4667 82.8347 37.8C82.808 37.8667 82.7614 37.9133 82.6947 37.94C82.6414 37.9667 82.588 37.98 82.5347 37.98C82.388 37.98 82.2614 37.94 82.1547 37.86C82.288 37.38 82.388 36.9533 82.4547 36.58C82.5214 36.2067 82.5814 35.9 82.6347 35.66C82.688 35.4067 82.7414 35.2133 82.7947 35.08C82.8614 34.9467 82.9614 34.88 83.0947 34.88C83.188 34.88 83.3214 34.8867 83.4947 34.9C83.668 34.9133 83.848 34.9267 84.0347 34.94C84.2347 34.9533 84.4347 34.9667 84.6347 34.98C84.8347 34.9933 85.0214 35 85.1947 35H91.8747C92.0347 35 92.2147 34.9933 92.4147 34.98C92.6147 34.9667 92.8147 34.9533 93.0147 34.94C93.2147 34.9267 93.3947 34.9133 93.5547 34.9C93.728 34.8867 93.868 34.88 93.9747 34.88C94.108 34.88 94.2014 34.9533 94.2547 35.1C94.3214 35.2333 94.3814 35.4267 94.4347 35.68C94.488 35.9333 94.5414 36.2467 94.5947 36.62C94.6614 36.9933 94.768 37.4067 94.9147 37.86C94.848 37.8867 94.7814 37.9133 94.7147 37.94C94.6614 37.9667 94.5947 37.98 94.5147 37.98C94.4614 37.98 94.4014 37.9667 94.3347 37.94C94.268 37.9133 94.2214 37.8667 94.1947 37.8C94.048 37.4667 93.9014 37.1733 93.7547 36.92C93.608 36.6667 93.4347 36.46 93.2347 36.3C93.048 36.14 92.8147 36.02 92.5347 35.94C92.268 35.86 91.9347 35.82 91.5347 35.82H89.4747ZM101.982 43.24H97.5223L96.2423 46.46C96.1757 46.62 96.1423 46.7533 96.1423 46.86C96.1423 47.14 96.549 47.34 97.3623 47.46C97.4557 47.4733 97.5157 47.5133 97.5423 47.58C97.5823 47.6333 97.6023 47.7 97.6023 47.78C97.6023 47.86 97.589 47.9667 97.5623 48.1C97.2023 48.0733 96.8223 48.0467 96.4223 48.02C96.0223 48.0067 95.629 48 95.2423 48C94.9757 48 94.7023 48.0067 94.4223 48.02C94.1423 48.0333 93.849 48.06 93.5423 48.1C93.5157 47.9933 93.5023 47.8867 93.5023 47.78C93.5023 47.6867 93.5157 47.6067 93.5423 47.54C93.5823 47.4733 93.6557 47.4333 93.7623 47.42C94.1757 47.3533 94.4823 47.2733 94.6823 47.18C94.8957 47.0733 95.049 46.9133 95.1423 46.7L99.9623 35.1C100.056 34.8733 100.182 34.76 100.342 34.76C100.396 34.76 100.476 34.7733 100.582 34.8L105.422 46.76C105.502 46.9467 105.682 47.0933 105.962 47.2C106.242 47.3067 106.516 47.38 106.782 47.42C106.862 47.4467 106.922 47.4867 106.962 47.54C107.016 47.58 107.042 47.66 107.042 47.78C107.042 47.86 107.029 47.9667 107.002 48.1C106.576 48.0733 106.156 48.0467 105.742 48.02C105.329 48.0067 104.942 48 104.582 48C104.209 48 103.782 48.0067 103.302 48.02C102.822 48.0467 102.389 48.0733 102.002 48.1C101.976 47.9667 101.962 47.86 101.962 47.78C101.962 47.66 101.982 47.58 102.022 47.54C102.076 47.4867 102.122 47.46 102.162 47.46C102.509 47.3933 102.789 47.32 103.002 47.24C103.216 47.1467 103.322 47.0133 103.322 46.84C103.322 46.76 103.296 46.66 103.242 46.54L101.982 43.24ZM101.662 42.42L99.8023 37.52L97.8623 42.42H101.662ZM111.453 46.6C111.453 46.8667 111.546 47.0533 111.733 47.16C111.919 47.2533 112.266 47.3533 112.773 47.46C112.906 47.4867 112.973 47.5933 112.973 47.78C112.973 47.86 112.959 47.9667 112.933 48.1C112.519 48.0733 112.106 48.0467 111.693 48.02C111.279 48.0067 110.886 48 110.513 48C110.153 48 109.753 48.0067 109.313 48.02C108.886 48.0467 108.479 48.0733 108.093 48.1C108.066 47.9667 108.053 47.86 108.053 47.78C108.053 47.5933 108.119 47.4867 108.253 47.46C108.759 47.3667 109.106 47.2667 109.293 47.16C109.479 47.0533 109.573 46.8667 109.573 46.6V36.42C109.573 36.1533 109.479 35.9667 109.293 35.86C109.106 35.74 108.759 35.64 108.253 35.56C108.173 35.5467 108.119 35.5067 108.093 35.44C108.066 35.3733 108.053 35.3 108.053 35.22C108.053 35.14 108.066 35.0333 108.093 34.9C108.493 34.9267 108.906 34.9533 109.333 34.98C109.773 34.9933 110.166 35 110.513 35C110.846 35 111.226 34.9933 111.653 34.98C112.093 34.9533 112.519 34.9267 112.933 34.9C112.959 35.0333 112.973 35.14 112.973 35.22C112.973 35.42 112.906 35.5333 112.773 35.56C112.266 35.64 111.919 35.74 111.733 35.86C111.546 35.9667 111.453 36.1533 111.453 36.42V46.6ZM119.81 42.16H118.33V46.56C118.33 46.8533 118.463 47.0533 118.73 47.16C119.01 47.2667 119.43 47.3533 119.99 47.42C120.15 47.4467 120.23 47.56 120.23 47.76C120.23 47.8533 120.217 47.9667 120.19 48.1C119.83 48.0733 119.39 48.0467 118.87 48.02C118.363 48.0067 117.863 48 117.37 48C117.023 48 116.623 48.0067 116.17 48.02C115.717 48.0467 115.29 48.0733 114.89 48.1C114.863 47.9667 114.85 47.86 114.85 47.78C114.85 47.5933 114.923 47.4867 115.07 47.46C115.577 47.38 115.93 47.2867 116.13 47.18C116.343 47.06 116.45 46.8667 116.45 46.6V36.42C116.45 36.1667 116.35 35.98 116.15 35.86C115.963 35.7267 115.59 35.6267 115.03 35.56C114.897 35.5467 114.83 35.4333 114.83 35.22C114.83 35.14 114.843 35.0333 114.87 34.9C115.27 34.9267 115.683 34.9533 116.11 34.98C116.537 34.9933 116.943 35 117.33 35H120.03C121.47 35 122.557 35.32 123.29 35.96C124.023 36.5867 124.39 37.44 124.39 38.52C124.39 38.8133 124.337 39.12 124.23 39.44C124.137 39.76 123.983 40.0733 123.77 40.38C123.57 40.6867 123.303 40.9733 122.97 41.24C122.65 41.4933 122.27 41.7 121.83 41.86L125.17 46.5C125.423 46.8467 125.703 47.0867 126.01 47.22C126.317 47.3533 126.603 47.4533 126.87 47.52C126.99 47.5467 127.05 47.64 127.05 47.8C127.05 47.9067 127.037 48.0267 127.01 48.16C126.703 48.1333 126.33 48.1067 125.89 48.08C125.45 48.0667 125.043 48.06 124.67 48.06C124.39 48.06 124.103 47.94 123.81 47.7C123.53 47.46 123.263 47.1533 123.01 46.78L119.81 42.16ZM119.39 41.34C120.323 41.34 121.043 41.1467 121.55 40.76C122.057 40.36 122.31 39.6667 122.31 38.68C122.31 38.2667 122.257 37.8867 122.15 37.54C122.043 37.1933 121.87 36.8933 121.63 36.64C121.403 36.3867 121.097 36.1867 120.71 36.04C120.337 35.8933 119.877 35.82 119.33 35.82H118.33V41.34H119.39Z" fill="white"/>
</g>
<defs>
<filter id="filter0_d_206_15" x="0.919983" y="0" width="132.13" height="54.24" filterUnits="userSpaceOnUse" color-interpolation-filters="sRGB">
<feFlood flood-opacity="0" result="BackgroundImageFix"/>
<feColorMatrix in="SourceAlpha" type="matrix" values="0 0 0 0 0 0 0 0 0 0 0 0 0 0 0 0 0 0 127 0" result="hardAlpha"/>
<feOffset/>
<feGaussianBlur stdDeviation="3"/>
<feComposite in2="hardAlpha" operator="out"/>
<feColorMatrix type="matrix" values="0 0 0 0 1 0 0 0 0 0.843137 0 0 0 0 0 0 0 0 0.5 0"/>
<feBlend mode="normal" in2="BackgroundImageFix" result="effect1_dropShadow_206_15"/>
<feBlend mode="normal" in="SourceGraphic" in2="effect1_dropShadow_206_15" result="shape"/>
</filter>
</defs>
</svg>
