<svg width="107" height="22" viewBox="0 0 107 22" fill="none" xmlns="http://www.w3.org/2000/svg">
<path d="M47.8431 19.238L49.3318 12.8025L44.339 8.47391L50.9349 7.90135L53.5 1.83221L56.0651 7.90135L62.661 8.47391L57.6682 12.8025L59.1569 19.238L53.5 15.8256L47.8431 19.238Z" fill="#FAA701"/>
<path d="M26.5897 19.238L28.0783 12.8025L23.0856 8.47391L29.6815 7.90135L32.2466 1.83221L34.8116 7.90135L41.4075 8.47391L36.4148 12.8025L37.9035 19.238L32.2466 15.8256L26.5897 19.238Z" fill="#FAA701"/>
<path d="M5.33626 19.238L6.82491 12.8025L1.83219 8.47391L8.42808 7.90135L10.9931 1.83221L13.5582 7.90135L20.1541 8.47391L15.1614 12.8025L16.65 19.238L10.9931 15.8256L5.33626 19.238Z" fill="#FAA701"/>
<path d="M69.0965 19.238L70.5852 12.8025L65.5925 8.47391L72.1884 7.90135L74.7534 1.83221L77.3185 7.90135L83.9144 8.47391L78.9217 12.8025L80.4103 19.238L74.7534 15.8256L69.0965 19.238Z" fill="#FAA701"/>
<path d="M90.35 19.238L91.8386 12.8025L86.8459 8.47391L93.4418 7.90135L96.0069 1.83221L98.5719 7.90135L105.168 8.47391L100.175 12.8025L101.664 19.238L96.0069 15.8256L90.35 19.238Z" fill="#FAA701"/>
</svg>
